<svg width="21" height="20" viewBox="0 0 21 20" fill="none" xmlns="http://www.w3.org/2000/svg">
<path d="M19.393 7.45336H18.2193C18.1223 7.1777 18.0107 6.9074 17.8851 6.6436L18.717 5.81166C18.9877 5.54095 18.9877 5.10207 18.717 4.83137L15.7727 1.89252C15.5019 1.62185 15.0631 1.62185 14.7924 1.89252L13.9604 2.72446C13.6975 2.59821 13.4281 2.48572 13.1534 2.38754V1.21381C13.1534 0.830901 12.843 0.520508 12.4601 0.520508H8.30043C7.91752 0.520508 7.60713 0.830901 7.60713 1.21381V2.38754C7.33135 2.48471 7.0608 2.59626 6.79668 2.7217L5.96474 1.88976C5.69399 1.61913 5.25515 1.61913 4.98444 1.88976L2.04629 4.83413C1.77562 5.10484 1.77562 5.54372 2.04629 5.81442L2.87823 6.64636C2.75169 6.90919 2.63925 7.17859 2.54131 7.45336H1.36761C0.98471 7.45336 0.674316 7.76376 0.674316 8.14662V12.3063C0.674316 12.6892 0.98471 12.9996 1.36761 12.9996H2.54135C2.63831 13.2753 2.74982 13.5456 2.87551 13.8094L2.04357 14.6413C1.77294 14.9121 1.77294 15.3509 2.04357 15.6216L4.98518 18.5632C5.25592 18.8339 5.69476 18.8339 5.96547 18.5632L6.79741 17.7313C7.06133 17.8567 7.33163 17.9682 7.60717 18.0654V19.2392C7.60717 19.6221 7.91756 19.9325 8.30047 19.9325H12.4602C12.8431 19.9325 13.1535 19.6221 13.1535 19.2392V18.0654C13.4293 17.9683 13.6998 17.8567 13.9639 17.7313L14.7959 18.5632C15.0666 18.8339 15.5055 18.8339 15.7762 18.5632L18.7178 15.6216C18.9884 15.3509 18.9884 14.912 18.7178 14.6413L17.8858 13.8094C18.0113 13.5456 18.1226 13.2753 18.2193 12.9996H19.393C19.7759 12.9996 20.0863 12.6892 20.0863 12.3063V8.14662C20.0863 7.76376 19.7759 7.45336 19.393 7.45336ZM18.6997 11.6131H17.7118C17.4018 11.6131 17.1294 11.8189 17.0448 12.1171C16.8992 12.6348 16.6936 13.1336 16.432 13.6035C16.2789 13.8751 16.326 14.2155 16.547 14.4354L17.2403 15.1322L15.2825 17.09L14.5858 16.3967C14.3659 16.1756 14.0255 16.1285 13.7538 16.2816C13.2841 16.543 12.7855 16.7486 12.2681 16.8945C11.9696 16.9788 11.7635 17.2512 11.7634 17.5614V18.5459H8.99373V17.558C8.99364 17.2478 8.78753 16.9754 8.489 16.891C7.97163 16.7452 7.47304 16.5395 7.00328 16.2782C6.73164 16.125 6.39123 16.1722 6.17134 16.3932L5.47804 17.0865L3.51673 15.1287L4.21007 14.432C4.43113 14.2121 4.47825 13.8717 4.32515 13.6C4.06354 13.1302 3.85787 12.6313 3.71228 12.1136C3.62673 11.818 3.35655 11.6142 3.0488 11.6131H2.06087V8.83992H3.0488C3.35879 8.83992 3.63112 8.63413 3.71573 8.33592C3.86132 7.81823 4.06699 7.31939 4.3286 6.84951C4.48171 6.57787 4.43458 6.23746 4.21352 6.01757L3.52022 5.32428L5.47804 3.36296L6.17134 4.05626C6.39123 4.27732 6.73164 4.32444 7.00328 4.17134C7.473 3.90998 7.97163 3.70431 8.489 3.55847C8.78627 3.47447 8.99206 3.20388 8.99373 2.89499V1.90706H11.7669V2.89499C11.767 3.20518 11.9731 3.47755 12.2716 3.56193C12.789 3.70776 13.2876 3.91343 13.7573 4.17479C14.029 4.3279 14.3694 4.28078 14.5893 4.05971L15.286 3.36641L17.2438 5.32424L16.5505 6.01753C16.3295 6.23742 16.2823 6.57783 16.4355 6.84947C16.6971 7.31931 16.9027 7.81819 17.0483 8.33588C17.1329 8.63408 17.4053 8.83988 17.7153 8.83988H18.6997V11.6131H18.6997Z" fill="#7D7D7D"/>
<path d="M10.3803 5.37354C7.7001 5.37354 5.52734 7.54629 5.52734 10.2265C5.52734 12.9068 7.70014 15.0795 10.3803 15.0795C13.0606 15.0795 15.2333 12.9067 15.2333 10.2265C15.2303 7.54755 13.0593 5.37658 10.3803 5.37354ZM10.3803 13.6929C8.46591 13.6929 6.91394 12.141 6.91394 10.2265C6.91394 8.3121 8.46591 6.76013 10.3803 6.76013C12.2948 6.76013 13.8468 8.3121 13.8468 10.2265C13.8445 12.14 12.2938 13.6906 10.3803 13.6929Z" fill="#7D7D7D"/>
</svg>
