<svg width="16" height="21" viewBox="0 0 16 21" fill="none" xmlns="http://www.w3.org/2000/svg">
<path d="M10.5145 17.3887C10.781 17.3887 10.997 17.1726 10.997 16.9061V8.63418C10.997 8.36763 10.781 8.1516 10.5145 8.1516C10.2479 8.1516 10.0319 8.36763 10.0319 8.63418V16.9061C10.0319 17.1726 10.2479 17.3887 10.5145 17.3887Z" fill="#7D7D7D" stroke="#757575" stroke-width="0.133816"/>
<path d="M5.57632 17.3887C5.84286 17.3887 6.0589 17.1726 6.0589 16.9061V8.63418C6.0589 8.36763 5.84286 8.1516 5.57632 8.1516C5.30977 8.1516 5.09374 8.36763 5.09374 8.63418V16.9061C5.09374 17.1726 5.30977 17.3887 5.57632 17.3887Z" fill="#7D7D7D" stroke="#757575" stroke-width="0.133816"/>
<path d="M4.46976 2.64839H2.50815H2.50808C1.55329 2.6494 0.779564 3.42313 0.778551 4.37792V4.37799V6.70576C0.778551 6.97231 0.994585 7.18834 1.26113 7.18834H1.96744V17.7294C1.96744 18.3504 2.18657 18.9252 2.58701 19.3466C2.98349 19.7658 3.53576 20.0021 4.11272 19.9994C4.11283 19.9994 4.11294 19.9994 4.11305 19.9994L4.46976 2.64839ZM4.46976 2.64839V2.1832V2.18313C4.47078 1.22834 5.2445 0.454613 6.19929 0.4536L6.19936 0.4536L9.89057 0.4536H9.89065C10.8453 0.454613 11.619 1.22835 11.6202 2.18312V2.1832V2.64839H4.46976ZM5.43493 2.18327C5.43537 1.7613 5.77747 1.41921 6.19943 1.41876H9.8905C10.3124 1.41921 10.6544 1.76129 10.655 2.1833V2.64839H5.43493V2.18327ZM13.1573 17.7294C13.1573 18.4806 12.6451 19.0342 11.9772 19.0342H4.11272C3.44466 19.0342 2.9326 18.4806 2.9326 17.7294V7.18834H13.1573V17.7294ZM14.3461 6.22318H1.74371L1.74371 4.37806C1.74371 4.37804 1.74371 4.37802 1.74371 4.37801C1.74419 3.95591 2.08627 3.614 2.50822 3.61355H13.5816C14.0037 3.614 14.3456 3.95593 14.3461 4.37806V6.22318Z" fill="#7D7D7D" stroke="#757575" stroke-width="0.133816"/>
</svg>
