<svg width="18" height="18" viewBox="0 0 18 18" fill="none" xmlns="http://www.w3.org/2000/svg">
<path d="M5.99585 0.862305H1.99585C1.44356 0.862305 0.99585 1.31002 0.99585 1.8623V5.8623C0.99585 6.41459 1.44356 6.8623 1.99585 6.8623H5.99585C6.54813 6.8623 6.99585 6.41459 6.99585 5.8623V1.8623C6.99585 1.31002 6.54813 0.862305 5.99585 0.862305Z" stroke="#0C4284" stroke-width="1.5" stroke-linecap="round" stroke-linejoin="round"/>
<path d="M5.99585 10.8623H1.99585C1.44356 10.8623 0.99585 11.31 0.99585 11.8623V15.8623C0.99585 16.4146 1.44356 16.8623 1.99585 16.8623H5.99585C6.54813 16.8623 6.99585 16.4146 6.99585 15.8623V11.8623C6.99585 11.31 6.54813 10.8623 5.99585 10.8623Z" stroke="#0C4284" stroke-width="1.5" stroke-linecap="round" stroke-linejoin="round"/>
<path d="M15.9958 10.8623H11.9958C11.4436 10.8623 10.9958 11.31 10.9958 11.8623V15.8623C10.9958 16.4146 11.4436 16.8623 11.9958 16.8623H15.9958C16.5481 16.8623 16.9958 16.4146 16.9958 15.8623V11.8623C16.9958 11.31 16.5481 10.8623 15.9958 10.8623Z" stroke="#0C4284" stroke-width="1.5" stroke-linecap="round" stroke-linejoin="round"/>
<path d="M10.9958 3.8623H16.9958" stroke="#0C4284" stroke-width="1.5" stroke-linecap="round" stroke-linejoin="round"/>
<path d="M13.9958 0.862305V6.8623" stroke="#0C4284" stroke-width="1.5" stroke-linecap="round" stroke-linejoin="round"/>
</svg>
