<svg width="19" height="19" viewBox="0 0 19 19" fill="none" xmlns="http://www.w3.org/2000/svg">
<path d="M18.0697 17.5996L12.8409 12.3708C13.8326 11.1464 14.4296 9.5898 14.4296 7.89505C14.4296 3.96633 11.2333 0.77002 7.30459 0.77002C3.37587 0.77002 0.179596 3.96633 0.179596 7.89505C0.179596 11.8238 3.37591 15.0201 7.30463 15.0201C8.99937 15.0201 10.556 14.4231 11.7803 13.4313L17.0092 18.6602C17.1557 18.8066 17.3931 18.8066 17.5396 18.6602L18.0698 18.13C18.2162 17.9835 18.2162 17.7461 18.0697 17.5996ZM7.30463 13.5201C4.20282 13.5201 1.67961 10.9969 1.67961 7.89505C1.67961 4.79324 4.20282 2.27004 7.30463 2.27004C10.4064 2.27004 12.9296 4.79324 12.9296 7.89505C12.9296 10.9969 10.4064 13.5201 7.30463 13.5201Z" fill="white"/>
</svg>
