<svg width="20" height="18" viewBox="0 0 20 18" fill="none" xmlns="http://www.w3.org/2000/svg">
<path d="M11.9958 4.8623V2.8623C11.9958 2.33187 11.7851 1.82316 11.4101 1.44809C11.035 1.07302 10.5263 0.862305 9.99585 0.862305H2.99585C2.46542 0.862305 1.95671 1.07302 1.58164 1.44809C1.20656 1.82316 0.99585 2.33187 0.99585 2.8623V14.8623C0.99585 15.3927 1.20656 15.9014 1.58164 16.2765C1.95671 16.6516 2.46542 16.8623 2.99585 16.8623H9.99585C10.5263 16.8623 11.035 16.6516 11.4101 16.2765C11.7851 15.9014 11.9958 15.3927 11.9958 14.8623V12.8623" stroke="#0C4284" stroke-width="1.5" stroke-linecap="round" stroke-linejoin="round"/>
<path d="M4.99585 8.8623H18.9958M18.9958 8.8623L15.9958 5.8623M18.9958 8.8623L15.9958 11.8623" stroke="#0C4284" stroke-width="1.5" stroke-linecap="round" stroke-linejoin="round"/>
</svg>
