<svg width="20" height="18" viewBox="0 0 20 18" fill="none" xmlns="http://www.w3.org/2000/svg">
<path d="M5.99585 8.8623H1.99585C1.44356 8.8623 0.99585 9.31002 0.99585 9.8623V15.8623C0.99585 16.4146 1.44356 16.8623 1.99585 16.8623H5.99585C6.54813 16.8623 6.99585 16.4146 6.99585 15.8623V9.8623C6.99585 9.31002 6.54813 8.8623 5.99585 8.8623Z" stroke="#0C4284" stroke-width="1.5" stroke-linecap="round" stroke-linejoin="round"/>
<path d="M11.9958 4.8623H7.99585C7.44356 4.8623 6.99585 5.31002 6.99585 5.8623V15.8623C6.99585 16.4146 7.44356 16.8623 7.99585 16.8623H11.9958C12.5481 16.8623 12.9958 16.4146 12.9958 15.8623V5.8623C12.9958 5.31002 12.5481 4.8623 11.9958 4.8623Z" stroke="#0C4284" stroke-width="1.5" stroke-linecap="round" stroke-linejoin="round"/>
<path d="M17.9958 0.862305H13.9958C13.4436 0.862305 12.9958 1.31002 12.9958 1.8623V15.8623C12.9958 16.4146 13.4436 16.8623 13.9958 16.8623H17.9958C18.5481 16.8623 18.9958 16.4146 18.9958 15.8623V1.8623C18.9958 1.31002 18.5481 0.862305 17.9958 0.862305Z" stroke="#0C4284" stroke-width="1.5" stroke-linecap="round" stroke-linejoin="round"/>
<path d="M1.99585 16.8623H15.9958" stroke="#0C4284" stroke-width="1.5" stroke-linecap="round" stroke-linejoin="round"/>
</svg>
